<svg xmlns:dc="http://purl.org/dc/elements/1.1/" xmlns:cc="http://creativecommons.org/ns#" xmlns:rdf="http://www.w3.org/1999/02/22-rdf-syntax-ns#" xmlns:svg="http://www.w3.org/2000/svg" xmlns="http://www.w3.org/2000/svg" xmlns:sodipodi="http://sodipodi.sourceforge.net/DTD/sodipodi-0.dtd" xmlns:inkscape="http://www.inkscape.org/namespaces/inkscape" width="100" height="100" id="svg5005" version="1.1" inkscape:version="0.48.4 r9939" sodipodi:docname="menu_box_9.svg">
  <defs id="defs5007"/>
  <sodipodi:namedview id="base" pagecolor="#ffffff" bordercolor="#666666" borderopacity="1.0" inkscape:pageopacity="0.0" inkscape:pageshadow="2" inkscape:zoom="3.959798" inkscape:cx="13.087879" inkscape:cy="55.841219" inkscape:document-units="px" inkscape:current-layer="layer1" showgrid="false" inkscape:window-width="1366" inkscape:window-height="746" inkscape:window-x="-8" inkscape:window-y="-8" inkscape:window-maximized="1"/>
  <metadata id="metadata5010">
    <rdf:RDF>
      <cc:Work rdf:about="">
        <dc:format>image/svg+xml</dc:format>
        <dc:type rdf:resource="http://purl.org/dc/dcmitype/StillImage"/>
      </cc:Work>
    </rdf:RDF>
  </metadata>
  <g inkscape:label="Layer 1" inkscape:groupmode="layer" id="layer1" transform="translate(0,-952.36218)">
    <path sodipodi:nodetypes="ccccccc" inkscape:connector-curvature="0" id="path3222-4-1" d="m 9.77424,1012.682 10e-6,-19.75988 -10e-6,-0.7401 0.84649,0 19.65352,0 0,20.49998 z" style="fill:#000000;fill-opacity:1;stroke:#ffffff;stroke-width:0;stroke-linecap:round;stroke-linejoin:round;stroke-miterlimit:12.39999962;stroke-opacity:1"/>
    <path style="fill:#000000;fill-opacity:1;stroke:#ffffff;stroke-width:0;stroke-linecap:round;stroke-linejoin:round;stroke-miterlimit:12.39999962;stroke-opacity:1" d="m 39.77424,1012.682 1e-5,-19.75988 -1e-5,-0.7401 0.8465,0 19.65351,0 0,20.49998 z" id="path3224-0-3" inkscape:connector-curvature="0" sodipodi:nodetypes="ccccccc"/>
    <path style="fill:#000000;fill-opacity:1;stroke:#ffffff;stroke-width:0;stroke-linecap:round;stroke-linejoin:round;stroke-miterlimit:12.39999962;stroke-opacity:1" d="m 9.77424,1040.682 10e-6,-19.76 -10e-6,-0.74 0.84649,0 19.65352,0 0,20.5 z" id="path3076-8" inkscape:connector-curvature="0" sodipodi:nodetypes="ccccccc"/>
    <path sodipodi:nodetypes="ccccccc" inkscape:connector-curvature="0" id="path3078-9" d="m 39.77424,1040.682 1e-5,-19.76 -1e-5,-0.74 0.8465,0 19.65351,0 0,20.5 z" style="fill:#000000;fill-opacity:1;stroke:#ffffff;stroke-width:0;stroke-linecap:round;stroke-linejoin:round;stroke-miterlimit:12.39999962;stroke-opacity:1"/>
    <path sodipodi:nodetypes="ccccccc" inkscape:connector-curvature="0" id="path3222-4-1-3" d="m 39.72575,984.54234 1e-5,-19.75995 -1e-5,-0.74005 0.84649,0 19.65352,0 0,20.5 z" style="fill:#000000;fill-opacity:1;stroke:#ffffff;stroke-width:0;stroke-linecap:round;stroke-linejoin:round;stroke-miterlimit:12.39999962;stroke-opacity:1"/>
    <path style="fill:#000000;fill-opacity:1;stroke:#ffffff;stroke-width:0;stroke-linecap:round;stroke-linejoin:round;stroke-miterlimit:12.39999962;stroke-opacity:1" d="m 69.72575,984.54234 10e-6,-19.75995 -10e-6,-0.74005 0.8465,0 19.65351,0 0,20.5 z" id="path3224-0-3-4" inkscape:connector-curvature="0" sodipodi:nodetypes="ccccccc"/>
    <path style="fill:#000000;fill-opacity:1;stroke:#ffffff;stroke-width:0;stroke-linecap:round;stroke-linejoin:round;stroke-miterlimit:12.39999962;stroke-opacity:1" d="m 39.72575,1012.5423 1e-5,-19.75988 -1e-5,-0.7401 0.84649,0 19.65352,0 0,20.49998 z" id="path3076-8-4" inkscape:connector-curvature="0" sodipodi:nodetypes="ccccccc"/>
    <path sodipodi:nodetypes="ccccccc" inkscape:connector-curvature="0" id="path3078-9-6" d="m 69.72575,1012.5423 10e-6,-19.75988 -10e-6,-0.7401 0.8465,0 19.65351,0 0,20.49998 z" style="fill:#000000;fill-opacity:1;stroke:#ffffff;stroke-width:0;stroke-linecap:round;stroke-linejoin:round;stroke-miterlimit:12.39999962;stroke-opacity:1"/>
    <path style="fill:#000000;fill-opacity:1;stroke:#ffffff;stroke-width:0;stroke-linecap:round;stroke-linejoin:round;stroke-miterlimit:12.39999962;stroke-opacity:1" d="m 69.72575,1040.682 10e-6,-19.76 -10e-6,-0.74 0.8465,0 19.65351,0 0,20.5 z" id="path4940" inkscape:connector-curvature="0" sodipodi:nodetypes="ccccccc"/>
    <path sodipodi:nodetypes="ccccccc" inkscape:connector-curvature="0" id="path3222-4-1-8" d="m 9.77424,984.54234 10e-6,-19.75995 -10e-6,-0.74005 0.84649,0 19.65352,0 0,20.5 z" style="fill:#000000;fill-opacity:1;stroke:#ffffff;stroke-width:0;stroke-linecap:round;stroke-linejoin:round;stroke-miterlimit:12.39999962;stroke-opacity:1"/>
  </g>
</svg>