<?xml version="1.0" encoding="utf-8"?>
<!-- Generator: Adobe Illustrator 18.1.0, SVG Export Plug-In . SVG Version: 6.00 Build 0)  -->
<svg version="1.1" id="Layer_1" xmlns="http://www.w3.org/2000/svg" xmlns:xlink="http://www.w3.org/1999/xlink" x="0px" y="0px"
	 viewBox="0 0 256 67.8" enable-background="new 0 0 256 67.8" xml:space="preserve">
<rect x="48.4" y="55.4" fill="#FFFFFF" width="34.8" height="12.1"/>
<text transform="matrix(1 0 0 1 51.3501 64.1844)"><tspan x="0" y="0" font-family="'BWText-Roman'" font-size="7.1">n</tspan><tspan x="4.3" y="0" font-family="'BWText-Roman'" font-size="7.1">am</tspan><tspan x="14.4" y="0" font-family="'BWText-Roman'" font-size="7.1">e</tspan></text>
<g>
	<defs>
		<rect id="SVGID_1_" x="0" y="0" width="256" height="67.8"/>
	</defs>
	<clipPath id="SVGID_2_">
		<use xlink:href="#SVGID_1_"  overflow="visible"/>
	</clipPath>
	
		<rect x="48.4" y="55.4" clip-path="url(#SVGID_2_)" fill="none" stroke="#000000" stroke-width="0.65" width="34.8" height="12.1"/>
</g>
<rect x="71.9" y="56.8" fill="none" stroke="#000000" stroke-width="0.65" width="9.8" height="9.2"/>
<rect x="86.5" y="55.4" fill="#FFFFFF" width="41.8" height="12.1"/>
<text transform="matrix(1 0 0 1 89.3833 64.1844)"><tspan x="0" y="0" font-family="'BWText-Roman'" font-size="7.1">&quot;PRINT</tspan><tspan x="23.3" y="0" font-family="'BWText-Roman'" font-size="7.1">&quot;</tspan></text>
<g>
	<defs>
		<rect id="SVGID_3_" x="0" y="0" width="256" height="67.8"/>
	</defs>
	<clipPath id="SVGID_4_">
		<use xlink:href="#SVGID_3_"  overflow="visible"/>
	</clipPath>
	
		<rect x="86.5" y="55.4" clip-path="url(#SVGID_4_)" fill="none" stroke="#000000" stroke-width="0.65" width="41.8" height="12.1"/>
</g>
<rect x="117" y="56.8" fill="none" stroke="#000000" stroke-width="0.65" width="9.8" height="9.2"/>
<rect x="131.6" y="55.4" fill="#FFFFFF" width="51.5" height="12.1"/>
<text transform="matrix(1 0 0 1 134.4834 64.1844)"><tspan x="0" y="0" font-family="'BWText-Roman'" font-size="7.1">argu</tspan><tspan x="14.6" y="0" font-family="'BWText-Roman'" font-size="7.1">m</tspan><tspan x="21" y="0" font-family="'BWText-Roman'" font-size="7.1">ent</tspan><tspan x="31.5" y="0" font-family="'BWText-Roman'" font-size="7.1">s</tspan></text>
<g>
	<defs>
		<rect id="SVGID_5_" x="0" y="0" width="256" height="67.8"/>
	</defs>
	<clipPath id="SVGID_6_">
		<use xlink:href="#SVGID_5_"  overflow="visible"/>
	</clipPath>
	
		<rect x="131.6" y="55.4" clip-path="url(#SVGID_6_)" fill="none" stroke="#000000" stroke-width="0.65" width="51.5" height="12.1"/>
</g>
<rect x="171.8" y="56.8" fill="none" stroke="#000000" stroke-width="0.65" width="9.8" height="9.2"/>
<rect x="0.3" y="55.4" fill="#FFFFFF" width="44.8" height="12.1"/>
<text transform="matrix(1 0 0 1 3.25 64.1844)"><tspan x="0" y="0" font-family="'BWText-Roman'" font-size="7.1">fun</tspan><tspan x="10.9" y="0" font-family="'BWText-Roman'" font-size="7.1">c</tspan><tspan x="14.5" y="0" font-family="'BWText-Roman'" font-size="7.1">tio</tspan><tspan x="23.1" y="0" font-family="'BWText-Roman'" font-size="7.1">n</tspan></text>
<g>
	<defs>
		<rect id="SVGID_7_" x="0" y="0" width="256" height="67.8"/>
	</defs>
	<clipPath id="SVGID_8_">
		<use xlink:href="#SVGID_7_"  overflow="visible"/>
	</clipPath>
	<rect x="0.3" y="55.4" clip-path="url(#SVGID_8_)" fill="none" stroke="#000000" stroke-width="0.65" width="44.8" height="12.1"/>
</g>
<rect x="186.3" y="55.4" fill="#FFFFFF" width="69.3" height="12.1"/>
<text transform="matrix(1 0 0 1 189.2334 64.1844)"><tspan x="0" y="0" font-family="'BWText-Roman'" font-size="7.1">&quot;HELLO</tspan><tspan x="25.7" y="0" font-family="'BWText-Roman'" font-size="7.1"> </tspan><tspan x="27.5" y="0" font-family="'BWText-Roman'" font-size="7.1">NE</tspan><tspan x="36.9" y="0" font-family="'BWText-Roman'" font-size="7.1">R</tspan><tspan x="41.6" y="0" font-family="'BWText-Roman'" font-size="7.1">DS</tspan><tspan x="50.4" y="0" font-family="'BWText-Roman'" font-size="7.1">&quot;</tspan></text>
<g>
	<defs>
		<rect id="SVGID_9_" x="0" y="0" width="256" height="67.8"/>
	</defs>
	<clipPath id="SVGID_10_">
		<use xlink:href="#SVGID_9_"  overflow="visible"/>
	</clipPath>
	
		<rect x="186.3" y="55.4" clip-path="url(#SVGID_10_)" fill="none" stroke="#000000" stroke-width="0.65" width="69.3" height="12.1"/>
</g>
<rect x="244.4" y="56.8" fill="none" stroke="#000000" stroke-width="0.65" width="9.8" height="9.2"/>
<g>
	<defs>
		<rect id="SVGID_11_" x="0" y="0" width="256" height="67.8"/>
	</defs>
	<clipPath id="SVGID_12_">
		<use xlink:href="#SVGID_11_"  overflow="visible"/>
	</clipPath>
	<path clip-path="url(#SVGID_12_)" fill="none" stroke="#000000" stroke-width="0.65" d="M77.1,61c0-9.8-8.3-17.8-18.6-17.8
		C51,43.2,44.8,47,41.8,53"/>
	<polyline clip-path="url(#SVGID_12_)" fill="none" stroke="#000000" stroke-width="0.65" points="46.5,51.3 41.8,53 40.4,48.3 	"/>
	<path clip-path="url(#SVGID_12_)" fill="none" stroke="#000000" stroke-width="0.65" d="M175.9,61c0-33.5-30.2-60.7-67.4-60.7
		c-32.7,0-59.8,20.5-66,48.3"/>
	<polyline clip-path="url(#SVGID_12_)" fill="none" stroke="#000000" stroke-width="0.65" points="46.6,45.8 42.5,48.6 40,44.4 	"/>
	<path clip-path="url(#SVGID_12_)" fill="none" stroke="#000000" stroke-width="0.65" d="M121.9,61c0-11.4-9.8-20.7-21.9-20.7
		c-9.2,0-16.9,4.9-20.1,12.5"/>
	<polyline clip-path="url(#SVGID_12_)" fill="none" stroke="#000000" stroke-width="0.65" points="84.4,50.8 79.9,52.8 78.2,48.2 	
		"/>
	<path clip-path="url(#SVGID_12_)" fill="none" stroke="#000000" stroke-width="0.65" d="M248.4,61c0-18.1-16-32.8-35.6-32.8
		c-16.9,0-30.9,10.3-34.6,24.7"/>
	<polyline clip-path="url(#SVGID_12_)" fill="none" stroke="#000000" stroke-width="0.65" points="182.4,50.3 178.2,53 175.8,48.7 	
		"/>
</g>
<path fill="none" stroke="#000000" stroke-width="0.65" d="M42.4,49.1"/>
</svg>
