<?xml version="1.0" encoding="utf-8"?>
<!-- Generator: Adobe Illustrator 17.0.2, SVG Export Plug-In . SVG Version: 6.00 Build 0)  -->
<!DOCTYPE svg PUBLIC "-//W3C//DTD SVG 1.1//EN" "http://www.w3.org/Graphics/SVG/1.1/DTD/svg11.dtd">
<svg version="1.1" id="Layer_1" xmlns="http://www.w3.org/2000/svg" xmlns:xlink="http://www.w3.org/1999/xlink" x="0px" y="0px"
	 width="500.561px" height="156.818px" viewBox="0 0 500.561 156.818" enable-background="new 0 0 500.561 156.818"
	 xml:space="preserve">
<g>
	<path fill="#FFFFFF" d="M447.789,74.937h18.065c0.696,2.284,3.079,4.569,7.546,4.569c6.052,0,8.139-3.774,8.139-9.334v-3.969
		h-0.399c-2.976,3.475-6.949,6.056-12.804,6.056c-11.514,0-21.539-8.538-21.539-25.212c0-15.286,8.238-27.196,20.646-27.196
		c7.147,0,11.515,2.878,14.393,7.444h0.296V21.44h17.867v46.252c0,8.536-2.976,15.186-7.443,19.158
		c-4.664,4.167-11.317,5.855-18.859,5.855C459.502,92.705,449.576,86.85,447.789,74.937 M482.33,46.154
		c0-6.651-3.174-12.009-8.633-12.009c-5.262,0-8.637,4.763-8.637,12.009c0,7.147,3.375,12.307,8.637,12.307
		C479.156,58.461,482.33,53.202,482.33,46.154"/>
	<path fill="#FFFFFF" d="M426.847,30.572h0.297c3.87-7.445,8.933-10.224,15.384-10.224c1.487,0,2.483,0.199,3.076,0.496v16.377
		h-0.396c-11.016-1.984-17.468,3.277-17.468,15.286v22.332h-18.76V21.441h17.867V30.572z"/>
	<path fill="#FFFFFF" d="M0,0h36.726c6.946,0,12.306,1.688,16.081,4.764c4.265,3.474,6.55,8.636,6.55,14.789
		c0,7.147-2.878,11.614-8.835,14.392v0.299c7.744,2.579,12.207,9.526,12.207,17.964c0,8.04-3.076,14.292-8.139,18.065
		c-4.266,3.077-9.823,4.566-17.168,4.566H0V0z M34.94,58.262c4.466,0,7.739-2.68,7.739-7.641c0-5.163-3.573-7.643-7.838-7.643
		H20.349v15.284H34.94z M33.054,29.279c3.969,0,6.847-2.182,6.847-6.55c0-4.267-2.977-6.352-6.946-6.352H20.349v12.902H33.054z"/>
</g>
<rect x="66.112" y="0" fill="#FFFFFF" width="19.255" height="74.839"/>
<g>
	<path fill="#FFFFFF" d="M89.043,48.237c0-16.873,10.918-28.287,27.789-28.287c16.875,0,27.595,11.414,27.595,28.287
		c0,16.974-10.72,28.287-27.595,28.287C99.961,76.524,89.043,65.211,89.043,48.237 M125.37,48.237c0-9.329-2.98-15.185-8.736-15.185
		c-5.755,0-8.534,5.856-8.534,15.185c0,9.43,2.779,15.286,8.534,15.286C122.39,63.523,125.37,57.667,125.37,48.237"/>
	<path fill="#FFFFFF" d="M146.618,48.237c0-16.873,10.918-28.287,27.789-28.287c16.875,0,27.595,11.414,27.595,28.287
		c0,16.974-10.72,28.287-27.595,28.287C157.536,76.524,146.618,65.211,146.618,48.237 M182.945,48.237
		c0-9.329-2.98-15.185-8.736-15.185c-5.755,0-8.534,5.856-8.534,15.185c0,9.43,2.779,15.286,8.534,15.286
		C179.965,63.523,182.945,57.667,182.945,48.237"/>
	<path fill="#FFFFFF" d="M205.678,21.44h17.867v8.038h0.297c3.573-6.253,8.435-9.627,16.08-9.627c6.748,0,11.812,3.374,14.393,9.23
		h0.296c4.368-7.048,10.025-9.23,16.575-9.23c12.408,0,17.768,9.131,17.768,21.439v33.548h-18.76V44.664
		c0-5.46-1.688-9.033-6.451-9.033c-4.665,0-7.049,4.368-7.049,10.126v29.081h-18.756V44.664c0-5.46-1.688-9.033-6.451-9.033
		c-4.669,0-7.048,4.368-7.048,10.126v29.081h-18.761V21.44z"/>
	<path fill="#FFFFFF" d="M311.896,67.891h-0.197v6.948h-17.867V0h18.76v26.998h0.297c3.573-4.664,8.336-7.147,15.187-7.147
		c13.4,0,21.14,12.108,21.14,28.189c0,18.163-8.436,28.585-22.33,28.585C321.126,76.625,315.173,73.846,311.896,67.891
		 M330.159,47.842c0-8.637-3.174-14.195-8.835-14.195c-5.755,0-9.428,5.558-9.428,14.195c0,8.534,3.673,14.193,9.428,14.193
		C327.084,62.035,330.159,56.475,330.159,47.842"/>
	<path fill="#FFFFFF" d="M351.603,48.04c0-16.676,11.017-28.287,26.999-28.287c7.941,0,14.096,2.48,18.76,6.947
		c6.155,5.955,8.934,15.284,8.732,26.303h-35.829c0.795,6.651,3.969,10.024,9.625,10.024c3.277,0,6.155-1.488,7.349-5.061H405.3
		c-3.174,12.206-12.602,18.361-26.002,18.361C362.723,76.327,351.603,65.113,351.603,48.04 M370.265,42.482h17.073
		c-0.301-6.451-3.874-9.827-8.341-9.827C373.839,32.655,370.961,36.327,370.265,42.482"/>
	<path fill="#6488FF" d="M0,80.19h36.726c6.946,0,12.306,1.688,16.081,4.767c4.265,3.471,6.55,8.633,6.55,14.788
		c0,7.147-2.878,11.613-8.835,14.393v0.296c7.744,2.581,12.207,9.53,12.207,17.966c0,8.04-3.076,14.294-8.139,18.065
		c-4.266,3.075-9.823,4.565-17.168,4.565H0V80.19z M34.94,138.456c4.466,0,7.739-2.68,7.739-7.645c0-5.163-3.573-7.641-7.838-7.641
		H20.349v15.286H34.94z M33.054,109.473c3.969,0,6.847-2.186,6.847-6.554c0-4.265-2.977-6.352-6.946-6.352H20.349v12.906H33.054z"/>
	<path fill="#6488FF" d="M99.858,155.031v-6.949h-0.297c-3.873,5.558-8.834,8.637-15.783,8.637
		c-12.108,0-18.065-8.337-18.065-20.646v-34.442h18.76v30.271c0,6.056,2.285,8.44,6.752,8.44c4.862,0,7.74-3.277,7.74-9.432v-29.279
		h18.76v53.4H99.858z"/>
	<path fill="#6488FF" d="M120.706,138.156h17.373c0.297,4.368,2.878,6.949,7.641,6.949c3.672,0,6.451-1.091,6.451-4.763
		c0-4.368-5.854-4.664-12.408-5.759c-8.534-1.289-18.361-4.068-18.361-17.468c0-10.918,10.621-17.073,23.029-17.073
		c15.385,0,23.422,6.056,24.117,16.476h-17.665c-0.498-3.969-3.277-5.06-6.353-5.06c-2.779,0-5.36,1.091-5.36,4.166
		c0,2.981,4.664,3.775,10.42,4.566c9.23,1.391,20.943,3.573,20.943,18.365c0,12.804-11.017,18.263-24.912,18.263
		C130.632,156.818,120.809,150.367,120.706,138.156"/>
</g>
<path fill="#6488FF" d="M173.616,101.631h18.761v53.4h-18.761V101.631z M173.616,82.376h18.761v14.986h-18.761V82.376z"/>
<g>
	<path fill="#6488FF" d="M215.509,108.975h0.296c4.072-5.854,9.234-8.934,16.279-8.934c11.712,0,17.768,8.238,17.768,20.449v34.541
		h-18.761v-30.173c0-5.957-2.182-9.234-7.048-9.234c-4.763,0-7.641,3.973-7.641,10.127v29.28h-18.76V101.63h17.867V108.975z"/>
	<path fill="#6488FF" d="M253.132,128.23c0-16.674,11.017-28.287,26.998-28.287c7.938,0,14.093,2.482,18.757,6.949
		c6.155,5.953,8.934,15.286,8.736,26.303H271.79c0.795,6.649,3.973,10.024,9.629,10.024c3.277,0,6.155-1.49,7.345-5.063h18.065
		c-3.178,12.21-12.606,18.365-26.007,18.365C264.248,156.521,253.132,145.303,253.132,128.23 M271.79,122.672h17.073
		c-0.297-6.451-3.87-9.827-8.337-9.827C275.363,112.845,272.486,116.517,271.79,122.672"/>
	<path fill="#6488FF" d="M309.501,138.156h17.369c0.3,4.368,2.882,6.949,7.645,6.949c3.672,0,6.451-1.091,6.451-4.763
		c0-4.368-5.858-4.664-12.408-5.759c-8.534-1.289-18.361-4.068-18.361-17.468c0-10.918,10.621-17.073,23.026-17.073
		c15.384,0,23.424,6.056,24.12,16.476h-17.669c-0.495-3.969-3.273-5.06-6.353-5.06c-2.779,0-5.356,1.091-5.356,4.166
		c0,2.981,4.664,3.775,10.42,4.566c9.23,1.391,20.943,3.573,20.943,18.365c0,12.804-11.017,18.263-24.912,18.263
		C319.427,156.818,309.6,150.367,309.501,138.156"/>
	<path fill="#6488FF" d="M361.324,138.156h17.369c0.3,4.368,2.882,6.949,7.645,6.949c3.672,0,6.451-1.091,6.451-4.763
		c0-4.368-5.858-4.664-12.408-5.759c-8.534-1.289-18.361-4.068-18.361-17.468c0-10.918,10.621-17.073,23.026-17.073
		c15.384,0,23.424,6.056,24.12,16.476h-17.669c-0.495-3.969-3.273-5.06-6.353-5.06c-2.779,0-5.356,1.091-5.356,4.166
		c0,2.981,4.664,3.775,10.42,4.566c9.23,1.391,20.943,3.573,20.943,18.365c0,12.804-11.017,18.263-24.912,18.263
		C371.25,156.818,361.423,150.367,361.324,138.156"/>
</g>
</svg>
