<?xml version="1.0" encoding="utf-8"?>
<!-- Generator: Adobe Illustrator 17.0.2, SVG Export Plug-In . SVG Version: 6.00 Build 0)  -->
<!DOCTYPE svg PUBLIC "-//W3C//DTD SVG 1.1//EN" "http://www.w3.org/Graphics/SVG/1.1/DTD/svg11.dtd">
<svg version="1.1" id="Layer_1" xmlns="http://www.w3.org/2000/svg" xmlns:xlink="http://www.w3.org/1999/xlink" x="0px" y="0px"
	 width="501.124px" height="50.433px" viewBox="0 0 501.124 50.433" enable-background="new 0 0 501.124 50.433"
	 xml:space="preserve">
<g>
	<g>
		<path fill="#FFFFFF" d="M262.288,11.666v3.185h-0.161c-1.565-2.483-3.939-4.051-7.829-4.051c-6.751,0-11.231,6.481-11.231,14.797
			c0,9.07,5.454,13.714,11.718,13.714c3.185,0,5.345-1.403,6.966-3.294h0.217v2.158c0,3.026-1.136,5.078-4.429,5.078
			c-2.43,0-3.725-1.242-4.104-2.486h-9.83c0.974,6.481,6.373,9.666,14.095,9.666c4.104,0,7.723-0.916,10.259-3.185
			c2.43-2.16,4.051-5.777,4.051-10.421V11.666H262.288z M257.7,31.805c-2.862,0-4.699-2.806-4.699-6.696
			c0-3.942,1.837-6.534,4.699-6.534c2.971,0,4.697,2.915,4.697,6.534C262.397,28.943,260.671,31.805,257.7,31.805z"/>
		<path fill="#FFFFFF" d="M232.374,16.633h-0.161v-4.967h-9.719v29.048H232.7V28.565c0-6.531,3.508-9.396,9.502-8.316h0.214V11.34
			c-0.323-0.161-0.863-0.27-1.673-0.27C237.235,11.07,234.479,12.582,232.374,16.633z"/>
		<path fill="#FFFFFF" d="M27.484,18.63v-0.161c3.241-1.512,4.808-3.942,4.808-7.831c0-3.346-1.244-6.155-3.564-8.043
			c-2.055-1.676-4.969-2.592-8.747-2.592H0v40.713h20.359c3.995,0,7.018-0.81,9.338-2.483c2.756-2.055,4.429-5.454,4.429-9.83
			C34.126,23.814,31.699,20.033,27.484,18.63z M11.069,8.911h6.86c2.158,0,3.778,1.133,3.778,3.455c0,2.378-1.565,3.564-3.725,3.564
			h-6.913V8.911z M19.006,31.698h-7.937v-8.316h7.884c2.322,0,4.265,1.35,4.265,4.157C23.219,30.239,21.437,31.698,19.006,31.698z"
			/>
		<rect x="35.966" y="0.002" fill="#FFFFFF" width="10.476" height="40.713"/>
		<path fill="#FFFFFF" d="M63.56,10.853c-9.179,0-15.12,6.211-15.12,15.39c0,9.235,5.941,15.39,15.12,15.39
			s15.011-6.155,15.011-15.39C78.572,17.064,72.739,10.853,63.56,10.853z M63.452,34.559c-3.132,0-4.644-3.185-4.644-8.316
			c0-5.075,1.512-8.26,4.644-8.26s4.752,3.185,4.752,8.26C68.204,31.374,66.584,34.559,63.452,34.559z"/>
		<path fill="#FFFFFF" d="M94.881,10.853c-9.179,0-15.12,6.211-15.12,15.39c0,9.235,5.941,15.39,15.12,15.39
			s15.011-6.155,15.011-15.39C109.893,17.064,104.06,10.853,94.881,10.853z M94.773,34.559c-3.132,0-4.644-3.185-4.644-8.316
			c0-5.075,1.512-8.26,4.644-8.26s4.752,3.185,4.752,8.26C99.525,31.374,97.905,34.559,94.773,34.559z"/>
		<path fill="#FFFFFF" d="M147.531,10.802c-3.563,0-6.643,1.186-9.017,5.02h-0.161c-1.403-3.185-4.159-5.02-7.829-5.02
			c-4.159,0-6.804,1.835-8.75,5.237h-0.161v-4.374h-9.719v29.048h10.206V24.894c0-3.132,1.295-5.51,3.834-5.51
			c2.592,0,3.511,1.943,3.511,4.914v16.415h10.203V24.894c0-3.132,1.297-5.51,3.833-5.51c2.592,0,3.511,1.943,3.511,4.914v16.415
			h10.206V22.464C157.197,15.768,154.279,10.802,147.531,10.802z"/>
		<path fill="#FFFFFF" d="M178.479,10.799c-3.728,0-6.32,1.353-8.263,3.889h-0.161V0h-10.206v40.713h9.722v-3.778h0.106
			c1.784,3.238,5.022,4.75,8.154,4.75c7.561,0,12.149-5.668,12.149-15.549C189.98,17.386,185.768,10.799,178.479,10.799z
			 M174.807,33.748c-3.132,0-5.131-3.076-5.131-7.72c0-4.699,1.999-7.723,5.131-7.723c3.079,0,4.805,3.023,4.805,7.723
			C179.612,30.724,177.939,33.748,174.807,33.748z"/>
		<path fill="#FFFFFF" d="M216.172,14.526c-2.536-2.43-5.885-3.778-10.206-3.778c-8.694,0-14.688,6.317-14.688,15.387
			c0,9.287,6.05,15.39,15.067,15.39c7.291,0,12.419-3.349,14.146-9.989h-9.825c-0.649,1.943-2.216,2.753-3.998,2.753
			c-3.076,0-4.805-1.837-5.237-5.454h19.491C221.033,22.842,219.521,17.766,216.172,14.526z M201.431,23.112
			c0.379-3.349,1.943-5.345,4.75-5.345c2.43,0,4.374,1.835,4.538,5.345H201.431z"/>
	</g>
	<g>
		<path fill="#6488FF" d="M304.933,18.732v-0.161c3.241-1.512,4.808-3.939,4.808-7.829c0-3.349-1.245-6.155-3.564-8.046
			c-2.055-1.673-4.969-2.592-8.747-2.592h-19.981v40.713h20.359c3.995,0,7.019-0.81,9.338-2.483
			c2.756-2.052,4.429-5.454,4.429-9.828C311.576,23.919,309.148,20.138,304.933,18.732z M288.519,9.013h6.86
			c2.158,0,3.778,1.136,3.778,3.455c0,2.378-1.565,3.566-3.725,3.566h-6.913V9.013z M296.456,31.801h-7.937v-8.316h7.884
			c2.322,0,4.265,1.35,4.265,4.159C300.668,30.345,298.886,31.801,296.456,31.801z"/>
		<path fill="#6488FF" d="M331.287,27.698c0,3.346-1.565,5.131-4.209,5.131c-2.43,0-3.672-1.297-3.672-4.591v-16.47h-10.206v18.736
			c0,6.698,3.241,11.234,9.828,11.234c3.781,0,6.478-1.676,8.586-4.699h0.161v3.781h9.719V11.768h-10.206V27.698z"/>
		<path fill="#6488FF" d="M358.828,21.864c-3.132-0.429-5.668-0.86-5.668-2.483c0-1.673,1.403-2.266,2.915-2.266
			c1.673,0,3.185,0.593,3.458,2.753h9.61c-0.379-5.668-4.752-8.965-13.121-8.965c-6.751,0-12.528,3.349-12.528,9.287
			c0,7.291,5.345,8.803,9.989,9.505c3.566,0.596,6.751,0.757,6.751,3.132c0,1.999-1.512,2.592-3.511,2.592
			c-2.592,0-3.995-1.403-4.156-3.781h-9.452c0.056,6.643,5.401,10.153,13.555,10.153c7.559,0,13.553-2.971,13.553-9.936
			C370.224,23.81,363.851,22.621,358.828,21.864z"/>
		<rect x="371.9" y="11.77" fill="#6488FF" width="10.206" height="29.051"/>
		<rect x="371.9" y="1.293" fill="#6488FF" width="10.206" height="8.152"/>
		<path fill="#6488FF" d="M403.707,10.903c-3.833,0-6.64,1.676-8.856,4.861h-0.161v-3.995h-9.719V40.82h10.206V24.89
			c0-3.346,1.565-5.51,4.157-5.51c2.648,0,3.834,1.785,3.834,5.025V40.82h10.206V22.028
			C413.374,15.385,410.08,10.903,403.707,10.903z"/>
		<path fill="#6488FF" d="M440.05,14.629c-2.536-2.428-5.885-3.778-10.203-3.778c-8.695,0-14.688,6.317-14.688,15.387
			c0,9.287,6.047,15.39,15.064,15.39c7.291,0,12.42-3.346,14.148-9.989h-9.828c-0.649,1.943-2.213,2.753-3.995,2.753
			c-3.079,0-4.808-1.837-5.24-5.454h19.494C444.911,22.945,443.399,17.87,440.05,14.629z M425.308,23.215
			c0.379-3.349,1.943-5.345,4.752-5.345c2.43,0,4.374,1.835,4.535,5.345H425.308z"/>
		<path fill="#6488FF" d="M461.537,21.864c-3.132-0.429-5.668-0.86-5.668-2.483c0-1.673,1.403-2.266,2.915-2.266
			c1.673,0,3.185,0.593,3.455,2.753h9.613c-0.379-5.668-4.752-8.965-13.124-8.965c-6.749,0-12.525,3.349-12.525,9.287
			c0,7.291,5.345,8.803,9.989,9.505c3.564,0.596,6.751,0.757,6.751,3.132c0,1.999-1.512,2.592-3.511,2.592
			c-2.592,0-3.995-1.403-4.159-3.781h-9.449c0.053,6.643,5.401,10.153,13.555,10.153c7.559,0,13.553-2.971,13.553-9.936
			C472.932,23.81,466.559,22.621,461.537,21.864z"/>
		<path fill="#6488FF" d="M489.729,21.864c-3.132-0.429-5.668-0.86-5.668-2.483c0-1.673,1.403-2.266,2.915-2.266
			c1.673,0,3.185,0.593,3.455,2.753h9.613c-0.379-5.668-4.752-8.965-13.124-8.965c-6.749,0-12.525,3.349-12.525,9.287
			c0,7.291,5.345,8.803,9.989,9.505c3.564,0.596,6.751,0.757,6.751,3.132c0,1.999-1.512,2.592-3.51,2.592
			c-2.592,0-3.995-1.403-4.159-3.781h-9.449c0.053,6.643,5.401,10.153,13.555,10.153c7.559,0,13.553-2.971,13.553-9.936
			C501.124,23.81,494.751,22.621,489.729,21.864z"/>
	</g>
</g>
</svg>
