<?xml version="1.0" encoding="utf-8"?>
<!-- Generator: Adobe Illustrator 17.0.2, SVG Export Plug-In . SVG Version: 6.00 Build 0)  -->
<!DOCTYPE svg PUBLIC "-//W3C//DTD SVG 1.1//EN" "http://www.w3.org/Graphics/SVG/1.1/DTD/svg11.dtd">
<svg version="1.1" id="Layer_1" xmlns="http://www.w3.org/2000/svg" xmlns:xlink="http://www.w3.org/1999/xlink" x="0px" y="0px"
	 width="175.518px" height="17.84px" viewBox="0 0 175.518 17.84" enable-background="new 0 0 175.518 17.84" xml:space="preserve">
<g>
	<defs>
		<rect id="SVGID_1_" x="0" y="0" width="175.518" height="17.84"/>
	</defs>
	<clipPath id="SVGID_2_">
		<use xlink:href="#SVGID_1_"  overflow="visible"/>
	</clipPath>
	<path clip-path="url(#SVGID_2_)" fill="#2800D6" d="M170.858,14.62c2.68,0,4.66-1.16,4.66-3.4c0-2.62-2.12-3.08-3.92-3.38
		c-1.3-0.24-2.46-0.34-2.46-1.06c0-0.64,0.62-0.94,1.42-0.94c0.9,0,1.52,0.28,1.64,1.2h3c-0.16-2.02-1.72-3.28-4.62-3.28
		c-2.42,0-4.42,1.12-4.42,3.28c0,2.4,1.9,2.88,3.68,3.18c1.36,0.24,2.6,0.34,2.6,1.26c0,0.66-0.62,1.02-1.6,1.02
		c-1.08,0-1.76-0.5-1.88-1.52h-3.08C165.978,13.24,167.858,14.62,170.858,14.62 M161.078,14.62c2.68,0,4.66-1.16,4.66-3.4
		c0-2.62-2.12-3.08-3.92-3.38c-1.3-0.24-2.46-0.34-2.46-1.06c0-0.64,0.62-0.94,1.42-0.94c0.9,0,1.52,0.28,1.64,1.2h3
		c-0.16-2.02-1.72-3.28-4.62-3.28c-2.42,0-4.42,1.12-4.42,3.28c0,2.4,1.9,2.88,3.68,3.18c1.36,0.24,2.6,0.34,2.6,1.26
		c0,0.66-0.62,1.02-1.6,1.02c-1.08,0-1.76-0.5-1.88-1.52h-3.08C156.198,13.24,158.078,14.62,161.078,14.62 M148.678,8.08
		c0.22-1.22,0.86-2,2.1-2c1.06,0,1.82,0.78,1.94,2H148.678z M150.918,14.6c1.3,0,2.34-0.34,3.2-0.94c0.9-0.62,1.5-1.5,1.72-2.42
		h-3.18c-0.28,0.64-0.84,1.02-1.7,1.02c-1.34,0-2.1-0.86-2.3-2.24h7.36c0.02-2.08-0.58-3.86-1.8-4.98c-0.88-0.8-2.04-1.28-3.5-1.28
		c-3.12,0-5.26,2.34-5.26,5.4C145.458,12.26,147.538,14.6,150.918,14.6 M134.919,14.3h3.26V8.64c0-1.26,0.72-2.16,1.8-2.16
		c1.06,0,1.6,0.74,1.6,1.82v6h3.26V7.64c0-2.28-1.32-3.88-3.56-3.88c-1.42,0-2.4,0.6-3.16,1.7h-0.06v-1.4h-3.14V14.3z M130.499,2.64
		h3.26V0h-3.26V2.64z M130.499,14.3h3.26V4.06h-3.26V14.3z M125.179,14.62c2.68,0,4.66-1.16,4.66-3.4c0-2.62-2.12-3.08-3.92-3.38
		c-1.3-0.24-2.46-0.34-2.46-1.06c0-0.64,0.62-0.94,1.42-0.94c0.9,0,1.52,0.28,1.64,1.2h3c-0.16-2.02-1.72-3.28-4.62-3.28
		c-2.42,0-4.42,1.12-4.42,3.28c0,2.4,1.9,2.88,3.68,3.18c1.36,0.24,2.6,0.34,2.6,1.26c0,0.66-0.62,1.02-1.6,1.02
		c-1.08,0-1.76-0.5-1.88-1.52h-3.08C120.299,13.24,122.179,14.62,125.179,14.62 M113.419,14.6c1.42,0,2.32-0.56,3.06-1.56h0.06v1.26
		h3.12V4.06h-3.26v5.72c0,1.22-0.68,2.06-1.8,2.06c-1.04,0-1.54-0.62-1.54-1.74V4.06h-3.24v6.72
		C109.819,13.06,111.059,14.6,113.419,14.6 M100.579,5.66V2.8h2.9c1.04,0,1.7,0.52,1.7,1.42c0,0.94-0.7,1.44-1.72,1.44H100.579z
		 M100.579,11.46v-3.4h3.12c1.08,0,1.92,0.58,1.92,1.72c0,1.02-0.72,1.68-1.88,1.68H100.579z M97.079,14.3h7.06
		c1.5,0,2.68-0.36,3.52-1.02c0.94-0.72,1.46-1.76,1.46-3.2c0-1.7-1-3.02-2.56-3.5V6.52c1.26-0.48,2-1.38,2-2.8
		c0-1.14-0.42-2.06-1.24-2.74c-0.76-0.62-1.86-0.98-3.34-0.98h-6.9V14.3z"/>
	<path clip-path="url(#SVGID_2_)" fill="#231F20" d="M90.579,11.32c-1.22,0-2.02-1-2.02-2.54c0-1.56,0.8-2.56,2.02-2.56
		c1.36,0,2.08,1.16,2.08,2.54C92.659,10.2,91.999,11.32,90.579,11.32 M90.599,17.84c1.52,0,2.86-0.34,3.76-1.14
		c0.82-0.74,1.36-1.86,1.36-3.4V4.06h-3.12v1.1h-0.04c-0.6-0.86-1.52-1.4-2.88-1.4c-2.54,0-4.3,2.12-4.3,5.12
		c0,3.14,2.14,4.86,4.44,4.86c1.24,0,2.02-0.5,2.62-1.18h0.08v1.02c0,1.24-0.58,1.96-1.96,1.96c-1.08,0-1.62-0.46-1.8-1h-3.16
		C85.919,16.68,87.779,17.84,90.599,17.84 M78.779,14.3h3.26V9.7c0-2.22,1.28-3.2,3.28-2.92h0.08v-2.8
		c-0.14-0.06-0.34-0.08-0.64-0.08c-1.24,0-2.08,0.54-2.8,1.76h-0.06v-1.6h-3.12V14.3z M70.739,8.08c0.22-1.22,0.86-2,2.1-2
		c1.06,0,1.82,0.78,1.94,2H70.739z M72.979,14.6c1.3,0,2.34-0.34,3.2-0.94c0.9-0.62,1.5-1.5,1.72-2.42h-3.18
		c-0.28,0.64-0.84,1.02-1.7,1.02c-1.34,0-2.1-0.86-2.3-2.24h7.36c0.02-2.08-0.58-3.86-1.8-4.98c-0.88-0.8-2.04-1.28-3.5-1.28
		c-3.12,0-5.26,2.34-5.26,5.4C67.519,12.26,69.599,14.6,72.979,14.6 M61.999,12.04c-1.34,0-2.18-1.16-2.18-2.86
		c0-1.68,0.7-2.94,2.14-2.94c1.32,0,2.02,1.16,2.02,2.92C63.979,10.94,63.279,12.04,61.999,12.04 M62.919,14.62
		c2.64,0,4.36-2.04,4.36-5.44c0-3.08-1.72-5.42-4.38-5.42c-1.4,0-2.28,0.58-2.92,1.46h-0.06V0h-3.26v14.3h3.12V13h0.04
		C60.459,14.06,61.559,14.62,62.919,14.62 M39.68,14.3h3.259V8.56c0-1.22,0.601-2.08,1.62-2.08c0.981,0,1.44,0.64,1.44,1.74v6.08
		h3.261V8.56c0-1.22,0.579-2.08,1.62-2.08c0.979,0,1.44,0.64,1.44,1.74v6.08h3.259V7.64c0-2.3-1.16-3.88-3.479-3.88
		c-1.321,0-2.42,0.56-3.22,1.8h-0.041c-0.519-1.1-1.54-1.8-2.879-1.8c-1.48,0-2.461,0.7-3.101,1.76h-0.06V4.06H39.68V14.3z
		 M33.52,14.62c3.3,0,5.46-2.34,5.46-5.42s-2.16-5.42-5.46-5.42c-3.28,0-5.48,2.34-5.48,5.42S30.24,14.62,33.52,14.62 M33.5,12.3
		c-1.42,0-2.16-1.24-2.16-3.1s0.74-3.12,2.16-3.12s2.18,1.26,2.18,3.12S34.92,12.3,33.5,12.3 M22.34,14.62
		c3.3,0,5.46-2.34,5.46-5.42s-2.16-5.42-5.46-5.42c-3.28,0-5.48,2.34-5.48,5.42S19.06,14.62,22.34,14.62 M22.32,12.3
		c-1.42,0-2.16-1.24-2.16-3.1s0.74-3.12,2.16-3.12S24.5,7.34,24.5,9.2S23.74,12.3,22.32,12.3 M12.84,14.3h3.3V0h-3.3V14.3z
		 M3.5,5.66V2.8h2.9c1.04,0,1.7,0.52,1.7,1.42c0,0.94-0.7,1.44-1.72,1.44H3.5z M3.5,11.46v-3.4h3.12c1.08,0,1.92,0.58,1.92,1.72
		c0,1.02-0.72,1.68-1.88,1.68H3.5z M0,14.3h7.06c1.5,0,2.68-0.36,3.52-1.02c0.94-0.72,1.46-1.76,1.46-3.2c0-1.7-1-3.02-2.56-3.5
		V6.52c1.26-0.48,2-1.38,2-2.8c0-1.14-0.42-2.06-1.24-2.74C9.48,0.36,8.38,0,6.9,0H0V14.3z"/>
</g>
</svg>
