<?xml version="1.0" encoding="utf-8"?>
<!-- Generator: Adobe Illustrator 16.0.4, SVG Export Plug-In . SVG Version: 6.00 Build 0)  -->
<!DOCTYPE svg PUBLIC "-//W3C//DTD SVG 1.1//EN" "http://www.w3.org/Graphics/SVG/1.1/DTD/svg11.dtd">
<svg version="1.1" id="Layer_1" xmlns="http://www.w3.org/2000/svg" xmlns:xlink="http://www.w3.org/1999/xlink" x="0px" y="0px"
	 width="300px" height="30px" viewBox="0 0 300 30" enable-background="new 0 0 300 30" xml:space="preserve">
<g>
	<path fill="#2A343F" d="M0,0h11.378c2.441,0,4.255,0.594,5.508,1.616c1.353,1.122,2.045,2.639,2.045,4.519
		c0,2.342-1.221,3.826-3.298,4.617v0.099c2.573,0.792,4.222,2.968,4.222,5.771c0,2.375-0.857,4.09-2.408,5.277
		c-1.385,1.089-3.331,1.683-5.805,1.683H0V0z M10.521,9.333c1.682,0,2.836-0.824,2.836-2.374c0-1.485-1.088-2.342-2.803-2.342H5.772
		v4.716H10.521z M10.983,18.898c1.913,0,3.1-1.088,3.1-2.77c0-1.88-1.385-2.837-3.166-2.837H5.772v5.607H10.983z"/>
	<path fill="#2A343F" d="M21.836,0h5.442v23.582h-5.442V0z"/>
	<path fill="#2A343F" d="M29.126,15.172c0-5.08,3.628-8.938,9.037-8.938c5.442,0,9.004,3.859,9.004,8.938
		c0,5.079-3.562,8.938-9.004,8.938C32.754,24.109,29.126,20.25,29.126,15.172z M41.725,15.172c0-3.067-1.253-5.146-3.595-5.146
		s-3.562,2.078-3.562,5.146s1.221,5.112,3.562,5.112S41.725,18.239,41.725,15.172z"/>
	<path fill="#2A343F" d="M48.225,15.172c0-5.08,3.628-8.938,9.036-8.938c5.442,0,9.004,3.859,9.004,8.938
		c0,5.079-3.562,8.938-9.004,8.938C51.853,24.109,48.225,20.25,48.225,15.172z M60.824,15.172c0-3.067-1.253-5.146-3.595-5.146
		c-2.341,0-3.562,2.078-3.562,5.146s1.221,5.112,3.562,5.112C59.57,20.284,60.824,18.239,60.824,15.172z"/>
	<path fill="#2A343F" d="M68.082,6.695h5.145v2.407h0.099c1.055-1.748,2.672-2.902,5.112-2.902c2.21,0,3.892,1.154,4.749,2.968
		h0.066c1.319-2.045,3.133-2.968,5.31-2.968c3.826,0,5.739,2.605,5.739,6.398v10.983h-5.376V13.555c0-1.813-0.758-2.869-2.374-2.869
		c-1.715,0-2.672,1.418-2.672,3.43v9.466h-5.376V13.555c0-1.813-0.758-2.869-2.375-2.869c-1.682,0-2.671,1.418-2.671,3.43v9.466
		h-5.376V6.695z"/>
	<path fill="#2A343F" d="M101.957,21.438h-0.066v2.144h-5.145V0h5.376v8.608h0.099c1.056-1.451,2.507-2.408,4.815-2.408
		c4.387,0,7.223,3.858,7.223,8.938c0,5.606-2.836,8.971-7.19,8.971C104.826,24.109,103.013,23.186,101.957,21.438z M108.817,15.105
		c0-2.902-1.154-4.815-3.331-4.815c-2.375,0-3.529,2.078-3.529,4.849c0,2.803,1.385,4.716,3.595,4.716
		C107.663,19.855,108.817,18.041,108.817,15.105z"/>
	<path fill="#2A343F" d="M115.316,15.105c0-5.046,3.529-8.905,8.675-8.905c2.407,0,4.32,0.791,5.771,2.111
		c2.012,1.847,3.001,4.782,2.968,8.212h-12.137c0.33,2.276,1.583,3.694,3.793,3.694c1.418,0,2.341-0.627,2.803-1.682h5.244
		c-0.363,1.517-1.352,2.968-2.836,3.991c-1.418,0.99-3.133,1.55-5.277,1.55C118.747,24.077,115.316,20.218,115.316,15.105z
		 M127.289,13.324c-0.198-2.011-1.451-3.298-3.199-3.298c-2.045,0-3.101,1.287-3.463,3.298H127.289z"/>
	<path fill="#2A343F" d="M134.547,6.695h5.145v2.638h0.099c1.187-2.011,2.572-2.902,4.617-2.902c0.495,0,0.825,0.033,1.056,0.132
		v4.617h-0.132c-3.298-0.461-5.409,1.154-5.409,4.815v7.586h-5.376V6.695z"/>
	<path fill="#2A343F" d="M146.455,23.978h5.211c0.297,0.891,1.188,1.649,2.969,1.649c2.275,0,3.232-1.188,3.232-3.232v-1.682h-0.132
		c-0.989,1.122-2.275,1.946-4.32,1.946c-3.793,0-7.322-2.836-7.322-8.015c0-4.947,2.903-8.443,7.091-8.443
		c2.243,0,3.76,0.891,4.75,2.309h0.066V6.695h5.145v15.237c0,2.54-0.89,4.387-2.243,5.607c-1.484,1.319-3.694,1.88-6.201,1.88
		C150.05,29.419,146.983,27.507,146.455,23.978z M158.098,14.446c0-2.276-1.188-4.188-3.431-4.188c-2.011,0-3.331,1.649-3.331,4.222
		c0,2.54,1.319,4.188,3.331,4.188C157.009,18.667,158.098,16.821,158.098,14.446z"/>
	<path fill="#2B00F7" d="M166.048,0h11.378c2.44,0,4.255,0.594,5.508,1.616c1.353,1.122,2.045,2.639,2.045,4.519
		c0,2.342-1.22,3.826-3.298,4.617v0.099c2.572,0.792,4.222,2.968,4.222,5.771c0,2.375-0.858,4.09-2.408,5.277
		c-1.385,1.089-3.331,1.683-5.804,1.683h-11.643V0z M176.569,9.333c1.682,0,2.836-0.824,2.836-2.374
		c0-1.485-1.088-2.342-2.804-2.342h-4.782v4.716H176.569z M177.031,18.898c1.913,0,3.1-1.088,3.1-2.77
		c0-1.88-1.385-2.837-3.167-2.837h-5.145v5.607H177.031z"/>
	<path fill="#2B00F7" d="M187.719,17.777V6.695h5.343v9.96c0,1.847,0.824,2.87,2.539,2.87c1.847,0,2.969-1.386,2.969-3.397V6.695
		h5.376v16.887h-5.145v-2.078h-0.099c-1.22,1.649-2.705,2.573-5.046,2.573C189.764,24.077,187.719,21.537,187.719,17.777z"/>
	<path fill="#2B00F7" d="M205.499,18.107h5.079c0.198,1.682,1.319,2.506,3.1,2.506c1.616,0,2.639-0.594,2.639-1.682
		c0-1.517-2.045-1.682-4.288-2.078c-2.936-0.495-6.068-1.286-6.068-5.244c0-3.562,3.298-5.409,7.289-5.409
		c4.782,0,7.354,2.078,7.619,5.409h-4.947c-0.198-1.517-1.221-1.979-2.705-1.979c-1.319,0-2.342,0.495-2.342,1.55
		c0,1.188,1.913,1.352,4.057,1.748c2.968,0.495,6.464,1.253,6.464,5.574c0,3.694-3.265,5.607-7.685,5.607
		C208.764,24.109,205.663,21.834,205.499,18.107z"/>
	<path fill="#2B00F7" d="M223.146,0h5.375v4.354h-5.375V0z M223.146,6.695h5.375v16.887h-5.375V6.695z"/>
	<path fill="#2B00F7" d="M231.095,6.695h5.178v2.309h0.099c1.253-1.814,2.87-2.803,5.211-2.803c3.694,0,5.871,2.639,5.871,6.398
		v10.983h-5.376v-9.895c0-1.78-0.89-3.001-2.638-3.001c-1.781,0-2.968,1.484-2.968,3.562v9.334h-5.376V6.695z"/>
	<path fill="#2B00F7" d="M249.138,15.105c0-5.046,3.529-8.905,8.674-8.905c2.407,0,4.32,0.791,5.771,2.111
		c2.012,1.847,3.002,4.782,2.969,8.212h-12.138c0.331,2.276,1.583,3.694,3.793,3.694c1.418,0,2.341-0.627,2.803-1.682h5.244
		c-0.363,1.517-1.352,2.968-2.836,3.991c-1.418,0.99-3.133,1.55-5.277,1.55C252.568,24.077,249.138,20.218,249.138,15.105z
		 M261.11,13.324c-0.198-2.011-1.451-3.298-3.199-3.298c-2.045,0-3.101,1.287-3.463,3.298H261.11z"/>
	<path fill="#2B00F7" d="M267.346,18.107h5.079c0.198,1.682,1.319,2.506,3.1,2.506c1.616,0,2.639-0.594,2.639-1.682
		c0-1.517-2.045-1.682-4.288-2.078c-2.936-0.495-6.068-1.286-6.068-5.244c0-3.562,3.298-5.409,7.289-5.409
		c4.782,0,7.354,2.078,7.619,5.409h-4.947c-0.198-1.517-1.221-1.979-2.705-1.979c-1.319,0-2.342,0.495-2.342,1.55
		c0,1.188,1.913,1.352,4.057,1.748c2.968,0.495,6.464,1.253,6.464,5.574c0,3.694-3.265,5.607-7.685,5.607
		C270.611,24.109,267.511,21.834,267.346,18.107z"/>
	<path fill="#2B00F7" d="M284.103,18.107h5.079c0.198,1.682,1.319,2.506,3.1,2.506c1.616,0,2.639-0.594,2.639-1.682
		c0-1.517-2.045-1.682-4.288-2.078c-2.936-0.495-6.068-1.286-6.068-5.244c0-3.562,3.298-5.409,7.289-5.409
		c4.782,0,7.354,2.078,7.619,5.409h-4.947c-0.198-1.517-1.221-1.979-2.705-1.979c-1.319,0-2.342,0.495-2.342,1.55
		c0,1.188,1.913,1.352,4.057,1.748c2.968,0.495,6.464,1.253,6.464,5.574c0,3.694-3.265,5.607-7.685,5.607
		C287.368,24.109,284.268,21.834,284.103,18.107z"/>
</g>
</svg>
