<?xml version="1.0" encoding="utf-8"?>
<!-- Generator: Adobe Illustrator 16.0.4, SVG Export Plug-In . SVG Version: 6.00 Build 0)  -->
<!DOCTYPE svg PUBLIC "-//W3C//DTD SVG 1.1//EN" "http://www.w3.org/Graphics/SVG/1.1/DTD/svg11.dtd">
<svg version="1.1" id="Layer_1" xmlns="http://www.w3.org/2000/svg" xmlns:xlink="http://www.w3.org/1999/xlink" x="0px" y="0px"
	 width="600px" height="186.451px" viewBox="0 0 600 186.451" enable-background="new 0 0 600 186.451" xml:space="preserve">
<g>
	<path fill="#2A343F" d="M0,0h41.85c8.977,0,15.648,2.184,20.258,5.944c4.973,4.124,7.521,9.705,7.521,16.619
		c0,8.613-4.488,14.072-12.13,16.983v0.364c9.461,2.912,15.527,10.918,15.527,21.229c0,8.734-3.154,15.042-8.855,19.409
		c-5.095,4.003-12.252,6.187-21.35,6.187H0V0z M38.696,34.329c6.187,0,10.433-3.032,10.433-8.734c0-5.459-4.003-8.613-10.311-8.613
		H21.229v17.347H38.696z M40.395,69.508c7.036,0,11.403-4.003,11.403-10.19c0-6.914-5.095-10.432-11.646-10.432H21.229v20.622
		H40.395z"/>
	<path fill="#2A343F" d="M80.307,0h20.016v86.733H80.307V0z"/>
	<path fill="#2A343F" d="M107.117,55.8c0-18.681,13.344-32.874,33.238-32.874c20.016,0,33.116,14.193,33.116,32.874
		s-13.101,32.874-33.116,32.874C120.46,88.674,107.117,74.481,107.117,55.8z M153.455,55.8c0-11.281-4.609-18.923-13.222-18.923
		c-8.613,0-13.101,7.642-13.101,18.923s4.488,18.802,13.101,18.802C148.846,74.603,153.455,67.082,153.455,55.8z"/>
	<path fill="#2A343F" d="M177.356,55.8c0-18.681,13.343-32.874,33.238-32.874c20.015,0,33.116,14.193,33.116,32.874
		s-13.101,32.874-33.116,32.874C190.699,88.674,177.356,74.481,177.356,55.8z M223.694,55.8c0-11.281-4.61-18.923-13.222-18.923
		c-8.613,0-13.101,7.642-13.101,18.923s4.488,18.802,13.101,18.802C219.084,74.603,223.694,67.082,223.694,55.8z"/>
	<path fill="#2A343F" d="M250.385,24.625h18.923v8.855h0.364c3.882-6.429,9.826-10.675,18.802-10.675
		c8.128,0,14.314,4.246,17.468,10.917h0.243c4.852-7.521,11.524-10.917,19.53-10.917c14.071,0,21.107,9.583,21.107,23.533v40.395
		H327.05V49.856c0-6.672-2.79-10.554-8.734-10.554c-6.308,0-9.826,5.216-9.826,12.616v34.814h-19.772V49.856
		c0-6.672-2.791-10.554-8.734-10.554c-6.186,0-9.826,5.216-9.826,12.616v34.814h-19.772V24.625z"/>
	<path fill="#2A343F" d="M374.97,78.848h-0.242v7.885h-18.924V0h19.772v31.66h0.364c3.882-5.337,9.219-8.855,17.711-8.855
		c16.134,0,26.565,14.193,26.565,32.874c0,20.622-10.432,32.995-26.444,32.995C385.523,88.674,378.852,85.277,374.97,78.848z
		 M400.201,55.558c0-10.675-4.246-17.71-12.252-17.71c-8.734,0-12.979,7.642-12.979,17.832c0,10.311,5.095,17.347,13.223,17.347
		C395.956,73.025,400.201,66.354,400.201,55.558z"/>
	<path fill="#2A343F" d="M424.103,55.558c0-18.56,12.979-32.752,31.903-32.752c8.855,0,15.891,2.911,21.229,7.764
		c7.399,6.793,11.038,17.589,10.917,30.205h-44.64c1.213,8.37,5.823,13.586,13.95,13.586c5.216,0,8.612-2.305,10.311-6.187h19.288
		c-1.334,5.58-4.974,10.917-10.433,14.678c-5.216,3.639-11.524,5.702-19.409,5.702C436.718,88.553,424.103,74.36,424.103,55.558z
		 M468.136,49.007c-0.728-7.399-5.337-12.13-11.767-12.13c-7.521,0-11.403,4.73-12.737,12.13H468.136z"/>
	<path fill="#2A343F" d="M494.828,24.625h18.923v9.704h0.364c4.367-7.399,9.461-10.674,16.982-10.674
		c1.82,0,3.033,0.121,3.881,0.485v16.982h-0.484c-12.13-1.698-19.894,4.246-19.894,17.71v27.9h-19.772V24.625z"/>
	<path fill="#2A343F" d="M538.62,88.188h19.167c1.092,3.276,4.367,6.065,10.917,6.065c8.37,0,11.888-4.367,11.888-11.888v-6.187
		h-0.485c-3.639,4.125-8.37,7.157-15.89,7.157c-13.951,0-26.931-10.432-26.931-29.477c0-18.196,10.676-31.054,26.081-31.054
		c8.249,0,13.829,3.275,17.468,8.492h0.243v-6.672H600v56.042c0,9.341-3.275,16.134-8.249,20.623
		c-5.458,4.852-13.585,6.914-22.805,6.914C551.842,108.204,540.561,101.168,538.62,88.188z M581.44,53.131
		c0-8.37-4.367-15.406-12.616-15.406c-7.4,0-12.251,6.065-12.251,15.527c0,9.341,4.851,15.406,12.251,15.406
		C577.438,68.658,581.44,61.866,581.44,53.131z"/>
</g>
<g>
	<path fill="#2B00F7" d="M0,97.777h41.85c8.977,0,15.648,2.184,20.258,5.944c4.973,4.125,7.521,9.705,7.521,16.619
		c0,8.613-4.488,14.072-12.13,16.983v0.364c9.461,2.912,15.527,10.917,15.527,21.229c0,8.734-3.154,15.042-8.855,19.409
		c-5.095,4.003-12.252,6.187-21.35,6.187H0V97.777z M38.696,132.106c6.187,0,10.433-3.032,10.433-8.733
		c0-5.459-4.003-8.613-10.311-8.613H21.229v17.347H38.696z M40.395,167.285c7.036,0,11.403-4.003,11.403-10.19
		c0-6.914-5.095-10.432-11.646-10.432H21.229v20.622H40.395z"/>
	<path fill="#2B00F7" d="M79.701,163.161v-40.758h19.652v36.634c0,6.793,3.032,10.554,9.34,10.554
		c6.792,0,10.917-5.095,10.917-12.495v-34.693h19.773v62.108h-18.923v-7.642h-0.364c-4.488,6.065-9.947,9.462-18.56,9.462
		C87.222,186.33,79.701,176.989,79.701,163.161z"/>
	<path fill="#2B00F7" d="M145.087,164.374h18.681c0.728,6.187,4.852,9.22,11.403,9.22c5.944,0,9.705-2.184,9.705-6.187
		c0-5.58-7.521-6.187-15.77-7.642c-10.796-1.819-22.32-4.731-22.32-19.288c0-13.101,12.13-19.894,26.809-19.894
		c17.589,0,27.051,7.642,28.021,19.894H183.42c-0.728-5.58-4.489-7.278-9.947-7.278c-4.853,0-8.613,1.82-8.613,5.702
		c0,4.367,7.036,4.973,14.921,6.429c10.917,1.82,23.775,4.61,23.775,20.501c0,13.586-12.009,20.622-28.264,20.622
		C157.097,186.451,145.694,178.081,145.087,164.374z"/>
	<path fill="#2B00F7" d="M209.989,97.777h19.772v16.012h-19.772V97.777z M209.989,122.402h19.772v62.108h-19.772V122.402z"/>
	<path fill="#2B00F7" d="M239.225,122.402h19.045v8.491h0.364c4.609-6.672,10.553-10.311,19.166-10.311
		c13.586,0,21.592,9.705,21.592,23.533v40.395H279.62v-36.391c0-6.551-3.275-11.039-9.704-11.039
		c-6.551,0-10.918,5.459-10.918,13.101v34.329h-19.772V122.402z"/>
	<path fill="#2B00F7" d="M305.582,153.335c0-18.56,12.979-32.752,31.904-32.752c8.855,0,15.89,2.911,21.228,7.764
		c7.399,6.793,11.039,17.589,10.917,30.205H324.99c1.213,8.37,5.823,13.586,13.95,13.586c5.216,0,8.613-2.305,10.311-6.187h19.288
		c-1.334,5.58-4.974,10.917-10.432,14.678c-5.216,3.639-11.524,5.702-19.409,5.702C318.197,186.33,305.582,172.137,305.582,153.335z
		 M349.615,146.784c-0.728-7.399-5.337-12.13-11.767-12.13c-7.521,0-11.403,4.73-12.737,12.13H349.615z"/>
	<path fill="#2B00F7" d="M372.546,164.374h18.681c0.728,6.187,4.852,9.22,11.402,9.22c5.944,0,9.705-2.184,9.705-6.187
		c0-5.58-7.521-6.187-15.77-7.642c-10.796-1.819-22.32-4.731-22.32-19.288c0-13.101,12.13-19.894,26.809-19.894
		c17.589,0,27.051,7.642,28.021,19.894h-18.195c-0.728-5.58-4.488-7.278-9.947-7.278c-4.852,0-8.613,1.82-8.613,5.702
		c0,4.367,7.036,4.973,14.921,6.429c10.917,1.82,23.775,4.61,23.775,20.501c0,13.586-12.009,20.622-28.264,20.622
		C384.555,186.451,373.152,178.081,372.546,164.374z"/>
	<path fill="#2B00F7" d="M434.172,164.374h18.681c0.728,6.187,4.852,9.22,11.403,9.22c5.944,0,9.704-2.184,9.704-6.187
		c0-5.58-7.521-6.187-15.77-7.642c-10.796-1.819-22.32-4.731-22.32-19.288c0-13.101,12.13-19.894,26.808-19.894
		c17.589,0,27.051,7.642,28.021,19.894h-18.195c-0.728-5.58-4.489-7.278-9.947-7.278c-4.853,0-8.613,1.82-8.613,5.702
		c0,4.367,7.036,4.973,14.921,6.429c10.917,1.82,23.776,4.61,23.776,20.501c0,13.586-12.009,20.622-28.265,20.622
		C446.181,186.451,434.778,178.081,434.172,164.374z"/>
</g>
</svg>
