<?xml version="1.0" encoding="utf-8"?>
<!-- Generator: Adobe Illustrator 15.0.2, SVG Export Plug-In . SVG Version: 6.00 Build 0)  -->
<!DOCTYPE svg PUBLIC "-//W3C//DTD SVG 1.1//EN" "http://www.w3.org/Graphics/SVG/1.1/DTD/svg11.dtd">
<svg version="1.1" id="Layer_1" xmlns="http://www.w3.org/2000/svg" xmlns:xlink="http://www.w3.org/1999/xlink" x="0px" y="0px"
	 width="217px" height="42.5px" viewBox="0 0 217 42.5" enable-background="new 0 0 217 42.5" xml:space="preserve">
<path fill-rule="evenodd" clip-rule="evenodd" fill="#000000" d="M6,18h5.49c4.62,0,7.01,1.06,7.01,4.36
	c0,4.149-4.08,4.64-7.03,4.64H6V18z M0,32h11.56c6.08,0,12.65-2.34,12.65-9.2c0-4.05-2.9-7.18-6.93-7.62v-0.09
	c3.31-0.98,5.57-3.59,5.57-7.16c0-5.75-4.99-7.93-9.84-7.93H0V32z M6,5h4.71c4.31,0,6.43,1.31,6.43,4.03c0,2.37-1.9,3.97-5.71,3.97
	H6V5z"/>
<rect x="27" fill-rule="evenodd" clip-rule="evenodd" fill="#000000" width="6" height="32"/>
<path fill-rule="evenodd" clip-rule="evenodd" fill="#000000" d="M37.02,21.11c0,6.73,5.26,11.23,11.84,11.23
	c6.57,0,11.83-4.5,11.83-11.23S55.43,9.87,48.86,9.87C42.28,9.87,37.02,14.38,37.02,21.11z M42.46,21.11c0-3.35,2.4-6.42,6.4-6.42
	c3.98,0,6.39,3.07,6.39,6.42c0,3.34-2.41,6.41-6.39,6.41C44.86,27.52,42.46,24.45,42.46,21.11z"/>
<path fill-rule="evenodd" clip-rule="evenodd" fill="#000000" d="M63.15,21.11c0,6.73,5.26,11.23,11.83,11.23s11.83-4.5,11.83-11.23
	S81.55,9.87,74.98,9.87S63.15,14.38,63.15,21.11z M68.59,21.11c0-3.35,2.4-6.42,6.39-6.42c3.99,0,6.39,3.07,6.39,6.42
	c0,3.34-2.4,6.41-6.39,6.41C70.99,27.52,68.59,24.45,68.59,21.11z"/>
<path fill-rule="evenodd" clip-rule="evenodd" fill="#000000" d="M89,10h6v3.75h0.09c0.95-2,3.34-3.88,6.97-3.88
	c3.35,0,5.67,1.3,6.8,3.97c1.59-2.72,4.03-3.97,7.3-3.97c5.8,0,7.84,4.06,7.84,9.18V32h-6V19.88c0-2.68-0.54-5.19-3.76-5.19
	c-3.4,0-4.24,2.76-4.24,5.52V32h-6V19.25c0-2.63-1.67-4.56-4.3-4.56c-3.58,0-4.7,2.58-4.7,5.44V32h-6V10z"/>
<path fill-rule="evenodd" clip-rule="evenodd" fill="#000000" d="M127,32h6v-3h0.09c1.591,2.58,4.891,3.74,7.93,3.74
	c6.711,0,10.74-5.301,10.74-11.63c0-6.33-4.31-11.24-10.52-11.24c-4.08,0-6.971,1.88-8.101,3.26H133V0h-6V32z M146.319,21.11
	c0,3.34-2.399,6.41-6.389,6.41c-3.991,0-6.391-3.069-6.391-6.41c0-3.35,2.399-6.42,6.391-6.42
	C143.92,14.69,146.319,17.76,146.319,21.11z"/>
<path fill-rule="evenodd" clip-rule="evenodd" fill="#000000" d="M176.26,22.98V21.51c0-7.44-4.13-11.64-10.21-11.64
	c-6.569,0-11.83,4.51-11.83,11.24s5.261,11.23,11.83,11.23c3.45,0,6.67-1.21,9.21-4.279l-3.899-2.9c-1.36,1.65-3.13,2.9-5.851,2.9
	c-3.04,0-5.49-1.921-5.85-5.08H176.26z M159.66,18.97c0.409-3.08,2.4-5.08,5.62-5.08c3.4,0,5.489,1.96,5.53,5.08H159.66z"/>
<path fill-rule="evenodd" clip-rule="evenodd" fill="#000000" d="M179,10.41h6.24v3.39h0.1c1.17-2.45,3.58-3.93,6.43-3.93
	c0.681,0,1.32,0.14,1.95,0.32v5.17c-0.9-0.23-1.77-0.4-2.63-0.4c-5.12,0-5.85,4.23-5.85,5.39V31.8H179V10.41z"/>
<path fill-rule="evenodd" clip-rule="evenodd" fill="#000000" d="M212,10v3.21l0.24,0.41c-1.591-2.59-4.44-3.75-7.48-3.75
	c-6.71,0-10.75,4.91-10.75,11.24c0,6.06,4.31,10.959,10.84,10.959c2.72,0,5.47-1.02,7.061-3.119H212v1.56
	c0,4.24-1.63,7.18-6.89,7.18c-3.041,0-5.25-1.12-7.421-3.08l-3.27,4.37c3.08,2.681,6.261,3.521,10.29,3.521
	c8.479,0,12.29-4.899,12.29-12.61V10H212z M205.89,14.69c3.95,0,6.44,2.58,6.44,6.28c0,3.57-2.45,6.29-6.48,6.29
	c-3.669,0-6.399-2.81-6.399-6.2C199.45,17.27,202.08,14.69,205.89,14.69z"/>
</svg>
